<mxfile host="app.diagrams.net" modified="2023-09-09T15:33:58.728Z" agent="Mozilla/5.0 (Windows NT 10.0; Win64; x64) AppleWebKit/537.36 (KHTML, like Gecko) Chrome/116.0.0.0 Safari/537.36" etag="WhyvRh7vaYDEWWkVKqt0" version="21.7.4" type="device">
  <diagram name="Page-1" id="N6mR1EWIkIVhfwHwUckR">
    <mxGraphModel dx="1708" dy="1364" grid="1" gridSize="10" guides="1" tooltips="1" connect="1" arrows="1" fold="1" page="1" pageScale="1" pageWidth="850" pageHeight="1100" math="0" shadow="0">
      <root>
        <mxCell id="0" />
        <mxCell id="1" parent="0" />
        <mxCell id="saafgrROEq-aFNjcmG4m-3" value="" style="edgeStyle=orthogonalEdgeStyle;rounded=0;orthogonalLoop=1;jettySize=auto;html=1;" edge="1" parent="1" source="saafgrROEq-aFNjcmG4m-1">
          <mxGeometry relative="1" as="geometry">
            <mxPoint x="250" y="130" as="targetPoint" />
            <Array as="points">
              <mxPoint x="250" y="120" />
              <mxPoint x="250" y="120" />
            </Array>
          </mxGeometry>
        </mxCell>
        <mxCell id="saafgrROEq-aFNjcmG4m-1" value="START&amp;nbsp;" style="rounded=1;whiteSpace=wrap;html=1;fillColor=#dae8fc;strokeColor=#6c8ebf;" vertex="1" parent="1">
          <mxGeometry x="190" y="63" width="120" height="27" as="geometry" />
        </mxCell>
        <mxCell id="saafgrROEq-aFNjcmG4m-5" value="" style="edgeStyle=orthogonalEdgeStyle;rounded=0;orthogonalLoop=1;jettySize=auto;html=1;" edge="1" parent="1" source="saafgrROEq-aFNjcmG4m-2">
          <mxGeometry relative="1" as="geometry">
            <mxPoint x="250" y="200" as="targetPoint" />
            <Array as="points">
              <mxPoint x="250" y="180" />
              <mxPoint x="250" y="180" />
            </Array>
          </mxGeometry>
        </mxCell>
        <mxCell id="saafgrROEq-aFNjcmG4m-2" value="Generate a random word" style="whiteSpace=wrap;html=1;rounded=1;" vertex="1" parent="1">
          <mxGeometry x="190" y="130" width="120" height="36.5" as="geometry" />
        </mxCell>
        <mxCell id="saafgrROEq-aFNjcmG4m-7" value="" style="edgeStyle=orthogonalEdgeStyle;rounded=0;orthogonalLoop=1;jettySize=auto;html=1;startSize=3;endSize=3;" edge="1" parent="1" source="saafgrROEq-aFNjcmG4m-4" target="saafgrROEq-aFNjcmG4m-6">
          <mxGeometry relative="1" as="geometry" />
        </mxCell>
        <mxCell id="saafgrROEq-aFNjcmG4m-4" value="Generate as many blanks necessary according to the word" style="whiteSpace=wrap;html=1;rounded=1;" vertex="1" parent="1">
          <mxGeometry x="190" y="200" width="120" height="45.25" as="geometry" />
        </mxCell>
        <mxCell id="saafgrROEq-aFNjcmG4m-11" value="" style="edgeStyle=orthogonalEdgeStyle;rounded=0;orthogonalLoop=1;jettySize=auto;html=1;" edge="1" parent="1" source="saafgrROEq-aFNjcmG4m-6" target="saafgrROEq-aFNjcmG4m-10">
          <mxGeometry relative="1" as="geometry" />
        </mxCell>
        <mxCell id="saafgrROEq-aFNjcmG4m-6" value="Ask the user to guess a letter&amp;nbsp;" style="whiteSpace=wrap;html=1;rounded=1;" vertex="1" parent="1">
          <mxGeometry x="190" y="280" width="120" height="30" as="geometry" />
        </mxCell>
        <mxCell id="saafgrROEq-aFNjcmG4m-13" value="" style="edgeStyle=orthogonalEdgeStyle;rounded=0;orthogonalLoop=1;jettySize=auto;html=1;" edge="1" parent="1" source="saafgrROEq-aFNjcmG4m-10" target="saafgrROEq-aFNjcmG4m-12">
          <mxGeometry relative="1" as="geometry" />
        </mxCell>
        <mxCell id="saafgrROEq-aFNjcmG4m-15" value="" style="edgeStyle=orthogonalEdgeStyle;rounded=0;orthogonalLoop=1;jettySize=auto;html=1;" edge="1" parent="1" source="saafgrROEq-aFNjcmG4m-10" target="saafgrROEq-aFNjcmG4m-14">
          <mxGeometry relative="1" as="geometry" />
        </mxCell>
        <mxCell id="saafgrROEq-aFNjcmG4m-10" value="Is the guessed letter&lt;br&gt;in the generated&lt;br&gt;word?&lt;br&gt;" style="rhombus;whiteSpace=wrap;html=1;rounded=1;fillColor=#d5e8d4;strokeColor=#82b366;" vertex="1" parent="1">
          <mxGeometry x="137.5" y="350" width="225" height="130" as="geometry" />
        </mxCell>
        <mxCell id="saafgrROEq-aFNjcmG4m-21" value="" style="edgeStyle=orthogonalEdgeStyle;rounded=0;orthogonalLoop=1;jettySize=auto;html=1;" edge="1" parent="1" source="saafgrROEq-aFNjcmG4m-12" target="saafgrROEq-aFNjcmG4m-20">
          <mxGeometry relative="1" as="geometry" />
        </mxCell>
        <mxCell id="saafgrROEq-aFNjcmG4m-12" value="Replace the blank with the&amp;nbsp; user guessed word" style="whiteSpace=wrap;html=1;rounded=1;" vertex="1" parent="1">
          <mxGeometry x="10" y="490" width="120" height="60" as="geometry" />
        </mxCell>
        <mxCell id="saafgrROEq-aFNjcmG4m-28" value="" style="edgeStyle=orthogonalEdgeStyle;rounded=0;orthogonalLoop=1;jettySize=auto;html=1;" edge="1" parent="1" source="saafgrROEq-aFNjcmG4m-14" target="saafgrROEq-aFNjcmG4m-26">
          <mxGeometry relative="1" as="geometry" />
        </mxCell>
        <mxCell id="saafgrROEq-aFNjcmG4m-14" value="Lose a life" style="whiteSpace=wrap;html=1;rounded=1;" vertex="1" parent="1">
          <mxGeometry x="400" y="500" width="120" height="40" as="geometry" />
        </mxCell>
        <mxCell id="saafgrROEq-aFNjcmG4m-16" value="YES&lt;br&gt;" style="text;html=1;align=center;verticalAlign=middle;resizable=0;points=[];autosize=1;strokeColor=none;fillColor=none;" vertex="1" parent="1">
          <mxGeometry x="45" y="378" width="50" height="30" as="geometry" />
        </mxCell>
        <mxCell id="saafgrROEq-aFNjcmG4m-17" value="NO" style="text;html=1;align=center;verticalAlign=middle;resizable=0;points=[];autosize=1;strokeColor=none;fillColor=none;" vertex="1" parent="1">
          <mxGeometry x="420" y="378" width="40" height="30" as="geometry" />
        </mxCell>
        <mxCell id="saafgrROEq-aFNjcmG4m-23" style="edgeStyle=orthogonalEdgeStyle;rounded=0;orthogonalLoop=1;jettySize=auto;html=1;entryX=0;entryY=0.5;entryDx=0;entryDy=0;" edge="1" parent="1" source="saafgrROEq-aFNjcmG4m-20" target="saafgrROEq-aFNjcmG4m-6">
          <mxGeometry relative="1" as="geometry">
            <mxPoint x="-80" y="250" as="targetPoint" />
            <Array as="points">
              <mxPoint x="-70" y="660" />
              <mxPoint x="-70" y="295" />
            </Array>
          </mxGeometry>
        </mxCell>
        <mxCell id="saafgrROEq-aFNjcmG4m-20" value="Are all the blanks filled?" style="rhombus;whiteSpace=wrap;html=1;rounded=1;fillColor=#d5e8d4;strokeColor=#82b366;" vertex="1" parent="1">
          <mxGeometry x="-10" y="600" width="160" height="120" as="geometry" />
        </mxCell>
        <mxCell id="saafgrROEq-aFNjcmG4m-36" style="edgeStyle=orthogonalEdgeStyle;rounded=0;orthogonalLoop=1;jettySize=auto;html=1;entryX=0.5;entryY=0;entryDx=0;entryDy=0;" edge="1" parent="1" source="saafgrROEq-aFNjcmG4m-26" target="saafgrROEq-aFNjcmG4m-30">
          <mxGeometry relative="1" as="geometry">
            <Array as="points">
              <mxPoint x="460" y="740" />
              <mxPoint x="280" y="740" />
            </Array>
          </mxGeometry>
        </mxCell>
        <mxCell id="saafgrROEq-aFNjcmG4m-39" style="edgeStyle=orthogonalEdgeStyle;rounded=0;orthogonalLoop=1;jettySize=auto;html=1;entryX=1;entryY=0.5;entryDx=0;entryDy=0;" edge="1" parent="1" source="saafgrROEq-aFNjcmG4m-26" target="saafgrROEq-aFNjcmG4m-6">
          <mxGeometry relative="1" as="geometry">
            <Array as="points">
              <mxPoint x="610" y="650" />
              <mxPoint x="610" y="295" />
            </Array>
          </mxGeometry>
        </mxCell>
        <mxCell id="saafgrROEq-aFNjcmG4m-26" value="Have they run out&lt;br&gt;of lives?" style="rhombus;whiteSpace=wrap;html=1;rounded=1;fillColor=#d5e8d4;strokeColor=#82b366;" vertex="1" parent="1">
          <mxGeometry x="380" y="590" width="160" height="120" as="geometry" />
        </mxCell>
        <mxCell id="saafgrROEq-aFNjcmG4m-29" value="NO&lt;br&gt;" style="text;html=1;align=center;verticalAlign=middle;resizable=0;points=[];autosize=1;strokeColor=none;fillColor=none;" vertex="1" parent="1">
          <mxGeometry x="-55" y="680" width="40" height="30" as="geometry" />
        </mxCell>
        <mxCell id="saafgrROEq-aFNjcmG4m-30" value="GAME OVER&lt;br&gt;" style="whiteSpace=wrap;html=1;rounded=1;fillColor=#dae8fc;strokeColor=#6c8ebf;" vertex="1" parent="1">
          <mxGeometry x="220" y="800" width="120" height="60" as="geometry" />
        </mxCell>
        <mxCell id="saafgrROEq-aFNjcmG4m-34" value="" style="edgeStyle=orthogonalEdgeStyle;rounded=0;orthogonalLoop=1;jettySize=auto;html=1;" edge="1" parent="1" source="saafgrROEq-aFNjcmG4m-20" target="saafgrROEq-aFNjcmG4m-30">
          <mxGeometry relative="1" as="geometry">
            <mxPoint x="70" y="720" as="sourcePoint" />
            <mxPoint x="200" y="810" as="targetPoint" />
            <Array as="points">
              <mxPoint x="70" y="740" />
              <mxPoint x="280" y="740" />
            </Array>
          </mxGeometry>
        </mxCell>
        <mxCell id="saafgrROEq-aFNjcmG4m-37" value="YES&lt;br&gt;" style="text;html=1;align=center;verticalAlign=middle;resizable=0;points=[];autosize=1;strokeColor=none;fillColor=none;" vertex="1" parent="1">
          <mxGeometry x="125" y="708" width="50" height="30" as="geometry" />
        </mxCell>
        <mxCell id="saafgrROEq-aFNjcmG4m-38" value="YES&lt;br&gt;" style="text;html=1;align=center;verticalAlign=middle;resizable=0;points=[];autosize=1;strokeColor=none;fillColor=none;" vertex="1" parent="1">
          <mxGeometry x="365" y="708" width="50" height="30" as="geometry" />
        </mxCell>
        <mxCell id="saafgrROEq-aFNjcmG4m-40" value="NO" style="text;html=1;align=center;verticalAlign=middle;resizable=0;points=[];autosize=1;strokeColor=none;fillColor=none;" vertex="1" parent="1">
          <mxGeometry x="540" y="618" width="40" height="30" as="geometry" />
        </mxCell>
      </root>
    </mxGraphModel>
  </diagram>
</mxfile>
